<svg xmlns="http://www.w3.org/2000/svg" viewBox="0 0 52.66 59.14"><defs><style>.cls-1{fill:#3b439b;}</style></defs><title>Asset 42ThumbnailsJ&amp;amp;H</title><g id="Layer_2" data-name="Layer 2"><g id="dark"><path class="cls-1" d="M.79,23.14A2.93,2.93,0,0,1,.3,24.47a5.52,5.52,0,0,0,.31,4.17c.32.75.64.76,1.22,1.9a13.23,13.23,0,0,0,.63,1.32,4.2,4.2,0,0,0,2,1.53l.69,1.8.74,1.53.74,1.21.84,1.16.43,1v1.16l-2,2.11-1.6,3.5L3.44,51l-.51,2.78-.63,1.5-.48,1.33.51.25a4.11,4.11,0,0,0-.21.74,4.46,4.46,0,0,0,0,1.58H10.4a1.07,1.07,0,0,0,.42-.72,1.4,1.4,0,0,0-.61-1,3.22,3.22,0,0,0-1-.59c-.86-.41-1.2-.37-1.55-.75a1.8,1.8,0,0,1-.38-.64l.4-2.59,2.05-4.43,1.65-3a13.36,13.36,0,0,0,2.21-3.75,13.2,13.2,0,0,0,.87-4A12.4,12.4,0,0,0,13.79,44c.17.84.27,1.46.48,2.69a12.14,12.14,0,0,1,.23,2.77,10.12,10.12,0,0,1-.15,1.34L15,51a7,7,0,0,1-.1.94c-.16,1-.37,1.14-.53,2.14a6.54,6.54,0,0,0-.1,1.22c0,.23,0,.42,0,.56L19,56a24.73,24.73,0,0,0,3.87-.11c2.59-.29,3-.76,3.12-1a1.62,1.62,0,0,0-.42-2c-.39-.18-.65.26-1.59.34A3,3,0,0,1,22.41,53c-.49-.22-.46-.39-1.18-.95-.94-.73-1.35-.72-1.63-1.25a1.9,1.9,0,0,1-.16-1.14c.2-6.3.29-10.2.25-11.32a7.81,7.81,0,0,1,0-1.35c.14-1,.4-1.28.45-1.85A4,4,0,0,0,19,32.38c-1.13-1.46-1.82-1.3-2.18-2.4-.22-.66-.1-1.16-.56-1.61s-.6-.21-1.2-.5-.83-.72-2.25-2.46c-.3-.37-.55-.66-.7-.84.23-.26.47-.51.7-.78a51.76,51.76,0,0,0,5-6.61c.26.29.67.72,1.19,1.2,1.39,1.29,2.15,2,3.23,2.12A3.11,3.11,0,0,0,24,20.28a3.29,3.29,0,0,0,1.61-1.6l2.55-6.86,1.46-2.11a.61.61,0,0,0,.17-.44c0-.2-.19-.22-.28-.49s0-.33-.1-.41-.23,0-.35-.07-.12-.64-.1-.69c.1-.52.39-.57.41-.94a.81.81,0,0,0-.45-.79c-.13,0-.28,0-1,.34s-1,.58-1.11.49,0-.12.07-.56a2,2,0,0,0,.07-.76c0-.06-.09-.4-.31-.48-.37-.15-1.07.43-1.35,1.14-.13.33-.06.41-.14,1.56a9.74,9.74,0,0,1-.17,1.52,6.55,6.55,0,0,1-.45,1.35l-.76-.07a5,5,0,0,0-.52,1.1c-.49,1.52,0,2.76-.35,2.88s-.62-.33-.79-.73-.09-.57-.31-.73-.34,0-.49-.21-.06-.3-.21-.48-.3-.11-.45-.24-.13-.84,0-1.11a1.69,1.69,0,0,1,.76-.86l2.53-.11.62-.12a7.9,7.9,0,0,0,1-5.46,6.78,6.78,0,0,0-.52-1.54l.6-.56a2,2,0,0,0-.59-1C24.65,1,24.46,1,23.5.62A11.89,11.89,0,0,0,22.13.11a9.79,9.79,0,0,0-1.5-.1c-.56,0-.84,0-1.08,0a4.44,4.44,0,0,0-1.73.48,3.89,3.89,0,0,0-1.69,1.83,5.61,5.61,0,0,0-.33,2.2c0,.79.1,1.12-.15,1.44s-.74.31-1.42.43a11.25,11.25,0,0,0-2.81,1.24A23.32,23.32,0,0,0,9.19,9a17.72,17.72,0,0,0-5,5.42c-1.26,2.06-1.89,3.09-1.83,4.13A2.18,2.18,0,0,1,2,20.09a3.24,3.24,0,0,1-.94.73c-.26.12-.43.15-.53.33s0,.41,0,.76A6.93,6.93,0,0,1,.79,23.14Z"/><path class="cls-1" d="M27.69,12.27l-2,9.54-.4.31V23.4l-1.71,8-.48.31v1l-1.76,8.46-.39.31v1.14l-1.76,7.24-.35.44h1.05l.14-.92,1.44-6.8.49-.48,0-.75L24,32.74l.39-.48.05-.79,1.75-7.81.44-.57.05-1,2-9.81L28,22.56l-.39.22L27.72,24l.4.4L27.64,33l-.36.49.09.87.27.4-.44,9.61-.27.74.09.62-.26,7.1-.31.75h1.14l-.35-.75.35-7,.31-.44-.09-1,.44-10.05.39-.48V24.1l.4-.31V22.65l-.31-.44v-.57l.75-9.37.66.2,5.57,9v.61l.66.79h.43l4.57,7.68v.61l.48.31.4.17,4.86,8.12.27.61.48.49,3.91,6v.76h.89l-4.24-7-.11-.7-.75-.75-4.84-8,.05-.8-.8-.65-4.68-7.36-.11-.86-.75-.7-5.37-8.58-.81-.61-.64-.54.16-1-.38-.65.16-2.74,1.08-2.09L32.88,4l.7.37L35.14,4a1.24,1.24,0,0,1-.7-.7c-.09-.33.08-.55.11-.86s-.12-.88-.91-1.56L34,0,32.4.43,32,1,29.61,2l-.38-.81-3.06.65.48,3.44Z"/></g></g></svg>