<svg xmlns="http://www.w3.org/2000/svg" viewBox="0 0 1200 2197.08"><defs><style>.cls-1{fill:#7274b7;}</style></defs><title>Asset 21ThumbnailsJ&amp;amp;H</title><g id="Layer_2" data-name="Layer 2"><g id="mediummtn"><polygon class="cls-1" points="1195.8 59.39 1183.75 48.44 1172.66 39.68 1161.08 34.43 1155.74 32.11 1151.31 30.7 1143.41 30.7 1137.23 29.37 1128.05 25.93 1120.96 23.68 1113.74 17.3 1106.25 11.57 1099.4 7.71 1094.35 5.38 1085.99 0 1080.78 1.8 1070.13 7.32 1061.24 13.09 1048.56 19.32 1040.8 23.77 1034.77 27.51 1029.22 27.74 1025.27 32.35 1020.38 35.09 1016.41 39.38 1009.82 43.78 1002.7 50.11 993.66 60.33 980.82 70.7 973.35 75.14 968.09 75.36 964.38 78.37 953.62 80.71 944.86 81.07 938.88 81.31 933.6 85.83 927.91 91.29 923.89 93.68 918.64 94.21 913.12 95.39 909.93 96.48 906.09 95.04 902.35 97.1 898.22 96 891.78 95.95 886.76 94.56 883.78 92.78 879.16 94.87 873.03 95.12 866.85 94.1 863.62 93.6 858.09 94.46 853.7 94.64 846.29 91.45 839.21 89.68 832.59 92.96 827.13 96.36 820.21 99.5 811.15 99.87 805.1 102.98 800.85 107.28 798.65 111.82 789.94 114.08 783.33 117.85 772.17 125.93 767.93 130.87 764.53 134.5 750.22 144.62 742.72 148.1 736.3 148.68 728.36 147.1 723.7 147.93 718.16 148.47 712.88 148.05 707.65 149.22 702.72 150.69 696.33 152.22 693.11 152.03 689.33 152.82 678.79 152.62 658.64 153.76 642.32 156.01 634.75 156.96 629.17 156.55 621.36 159.41 613.76 159.4 607.34 159.98 603.17 157.61 597.62 157.84 594.41 158.28 588.47 155.35 581.66 152.77 577.77 149.91 572.46 148.69 568.62 147.26 564.18 145.85 560.38 146.01 553.84 142.46 548.19 139.52 542.59 138.16 536.16 138.42 531.48 138.61 521.92 141.54 516.76 144.93 510.38 146.78 504.59 148.92 496.8 152.42 492.13 152.61 485.8 156.04 477.68 158.28 470.37 158.58 464.92 161.98 461.12 162.13 455.67 165.85 450.22 168.3 439.84 171.1 431.31 168.3 426 171.1 419.71 177.76 416.92 181.6 413.93 181.6 411.04 181.6 406.12 183.44 400.67 187.13 399.38 189.58 396.39 196.82 393.61 197.69 391.26 197.69 388.26 197.69 385.38 198.67 382.7 201.12 379.18 204.68 371.8 206.53 366.66 207.38 362.81 207.38 359.93 206.4 357.9 205.05 355.44 204.56 352.55 205.05 349.77 205.3 346.88 204.31 343.78 204.31 341.32 205.91 337.24 206.69 334.13 208.47 330.91 208.98 329.36 208.98 326.8 210.13 323.92 210.13 321.81 211.02 318.59 211.53 313.04 212.81 311.97 212.81 310.87 212.49 309.55 212.3 307.01 212.42 304.98 213.25 297.72 212.51 292.26 213.25 286.34 215.91 276.22 221.45 268.89 224.31 265 224.31 261.26 223.42 255.34 224.31 250.51 224.31 243.03 223.42 234.47 224.31 224.81 225.74 214.21 229.14 210.16 229.14 208.76 227.18 206.11 228.25 199.25 230.93 191.62 230.93 184.77 230.93 179 233.62 160.62 232.18 147.38 233.62 138.65 237.55 129.15 241.84 120.42 246.5 112.84 251.3 106.5 254.96 96.63 259.27 91 259.27 85.36 259.27 77.61 257.11 70.56 259.27 60.33 261.12 51.29 259.2 40.57 261.12 29.86 259.2 22.82 258.43 15.12 259.2 10.77 261.12 4.74 264.2 0 266.89 0 2197.08 1200 2197.08 1200 375.03 1200 282.68 1200 64.19 1195.8 59.39"/></g></g></svg>