<svg xmlns="http://www.w3.org/2000/svg" viewBox="0 0 1165.56 1778.71"><defs><style>.cls-1{fill:#f9f9f2;}.cls-2{fill:none;}.cls-3{fill:#bfbcde;}</style></defs><title>Asset 35ThumbnailsJ&amp;amp;H</title><g id="Layer_2" data-name="Layer 2"><g id="whitemtn"><rect class="cls-1" y="420.29" width="1165.56" height="1358.42"/><path class="cls-2" d="M177.62,51.26l1.09,2.39,3.12,1.14-.92-.67A18.77,18.77,0,0,1,177.62,51.26Z"/><path class="cls-1" d="M1128.73,301.47l-48.63-53.25-56.43-27.14-35.82-8.85-15.23,1L937,198.66v-7.18l-4.65,5.16L928.65,190,925,186.33l-5-5.52-2.68-4.42L911.89,172l-3-4.42-2-3.51-3.42-2.56h-4.81l-3.73,1.71-4,.34-5.28-.85-7.31-3.25-8.54-3.92-6.06-2.39-4.2-1.19-3.26.85-5.12,2.56-5.6,3.92-4-.34-6.37-.51-2.17.68-3.58,1-4.5-.17h-7l-7.31-.52-2.84-.28-3.39,2.43-4.3,3c-1.49,2.83-3.4,6.54-3.4,6.54l-.65,3,.92,2.86,3,4.5-3.27,2.94L789,190.05l-4.88,4.29-3.68,4.79-.9,4.16-.81,3.7,1.45,3.46L778,216.52l-3.89,4.74-7.36-1.56-2.83-5.2-3.38-2.66L754.12,210l-10.83,2.3-6.85,2.18-6.81,1-6.17,2.08,3.56-6.26,8.35-4,3-5.89,4.72.52,4.9-3.31,4.26-4.42,4.37-8,7.87-5.36-2.43-.34-1.55-2.73L742.06,177l-3.89-1.88-3.57-2.9L731,169.84,708.5,168l-1.24-2.05-8.7-.51-12.74-11.78-4.35-1.7H669.81l-5.43,1.87-3.89,1.54-3.73.17-5.28-3.58-4.5-4.78-4.51-1.88h-2.8l-4-.68-3.57-2.39-16.93-20-3.27-1.54h-20.5l-3,1.54-2.95,1.19-1.86,2.9-2.49,1-2.33-.51-1.86-2.56-3.27-1.71-4.19-.68L567,119h-5.12l-3.73-3.59-2.33-1.36L535.42,96.13,528.74,90l-3.88-2.9-5.75-2.39-4.35-2-3.11-4.09-3.57-1.88-5.28-7.85L500,67.3l-9.17-9.39-9.78-7.84-7.46-6.15L449,44.61,430.86,37.1h-4.35l-16.78-9.9H404.3L385.5,14.75l-2.83-3.28-.63-.69c-1.45,2.64-6.93,5.91-9,7.13-4,2.37-6.4,3.19-13.95,6.12-12.34,4.79-15.42,6.31-18.61,9.69a21.87,21.87,0,0,0-4.66,7.14c-.6,1.57-2.72,7-.93,12.24,1,2.81,4.37,5.28,11.17,10.2a112.74,112.74,0,0,0,11.17,7.14A45.23,45.23,0,0,0,364.68,74a23.19,23.19,0,0,0,9.77,1.53c2.54-.26,3.26-1,10.23-4.59,10.44-5.43,12.86-5.94,14.89-6.12,3.18-.29,2.82.48,7.91.51,8.82,0,11.67-2.25,13-.51,2,2.57-1.63,10.89-6.52,16.32-4.51,5-7.17,4.32-9.3,8.67-1.28,2.61-.9,4.07-.93,14.27,0,14.38-.8,15.9-1.4,16.83-3,4.63-6.95,2.57-12.09,8.16-3.49,3.79-2.28,5.42-5.59,10.2-4.31,6.24-7.5,5.12-16.74,12.75-5.94,4.9-9.25,7.63-11.17,12.75-1.38,3.67-1,5.91-1.4,15.81-.27,7.73-.41,15.78-.93,15.8s1-13.31-6-20.39c-.39-.39-.21-.16-7.91-5.1-7.94-5.09-9.42-6.15-10.7-7.14a75.93,75.93,0,0,1-8.38-7.65c-10.79-11-16.19-16.43-20.93-19.38-9.94-6.16-12.22-2.39-20.94-9.18-6-4.66-6-7.29-12.56-11.73-7.77-5.24-9.43-2.7-15.82-7.14-9.23-6.4-7.22-12.69-16.75-18.86-2.37-1.54-1.29-.37-14-6.12-7.09-3.23-10.68-4.87-13-6.63-6.92-5.21-4.82-7.55-11.63-12.75-3.19-2.43-6.35-4-14-9.53l-3.12-1.14-1.09-2.39a2.25,2.25,0,0,1-.42-.76L152.49,33.41l.16.57,6.62,4.33-5.51,2-2.21,4.33-7.73,7.08-4.41,4.73L135,59.17H124.32L121,63.5l-5.52,3.94-3.67,6.3v3.93l1.47,5.51,1.47,7.09-1.47,6.29L110,103.65l-1.84,8.66v5.9L103,125.3l-7,3.93H77.6l-28,26-5.52,2h-14l-6.62,3.15H18.37l-7.73-3.54-5.52,8.66L0,171.22V583.4H937V474.09l135,8.63,93.52-9.58V347.38Z"/><path class="cls-3" d="M177.62,51.26a18.77,18.77,0,0,0,3.29,2.86l.92.67.14.05,1.55-1.7,4-3.59,4.51-3.24,7.61-1.88,4.51-.85,9.63-.17,6.52-.68,3.73-2,5.75-2.56,5.9-1.19,6.69-.34L243.49,34l2.64-.17L248.62,32l3.26-3.24,2.49.51L257,32.32l3.11.85,3.73,1.2,6.06.51L276,33l7.77-1,4-1.71h5.13L326.15,5.19h10.56l2.8,1.37h23.15l3.57,1.36,5.44,1.2L377,11.34c1.08.45,2.43-2.1,3.61-2.1L382,10.78a2.26,2.26,0,0,0,.32-1.54c-.5-2.06-5-.56-11.17-4.59-2.41-1.56-3-2.61-5.12-3.06s-3.26.18-7.44,1a49.52,49.52,0,0,1-6.51,1,27.45,27.45,0,0,1-10.7-1C337.55,1.39,337.7.36,334.9.06a13.91,13.91,0,0,0-8.37,2c-2.2,1.33-2,2-4.65,4.08-3.13,2.46-4.68,2.54-8.38,4.59-1.26.7-3.63,2.51-8.37,6.12-6.36,4.85-7.56,6-10.7,7.65a31.22,31.22,0,0,1-6.05,2.55c-3.3.94-5,.74-8.37,1-6.66.57-6.53,1.95-13,2.55-5.35.5-8.58.75-10.7-1.53S253.79,22.86,253,23c-.26,0-.32.55-.55,1.2a8.6,8.6,0,0,1-3.17,3.9c-1.35,1.1-2.28,1.27-6.51,2.55-5.39,1.63-4.54,1.56-6.52,2-5.2,1.26-5.45.38-7.91,1.53-3.36,1.58-3.24,3.39-6.51,4.59-2.14.78-2.36.07-6,.51-5.27.63-5.6,2.18-10.23,2.55-3.58.29-3.82-.62-7,0a23.27,23.27,0,0,0-6.52,2.55c-4.95,2.54-4.9,3.71-7.9,4.59-3.88,1.14-6.64,0-7,1a.73.73,0,0,0,0,.46l.11.08Z"/><path class="cls-3" d="M377,11.34l-5.35-2.22-5.44-1.2-3.57-1.36H339.51l-2.8-1.37H326.15L292.9,30.27h-5.13l-4,1.71L276,33l-6,1.88-6.06-.51-3.73-1.2L257,32.32l-2.64-3.07-2.49-.51L248.62,32l-2.49,1.88-2.64.17-1.08,2.56-6.69.34-5.9,1.19-5.75,2.56-3.73,2-6.52.68-9.63.17-4.51.85-7.61,1.88-4.51,3.24-4,3.59L182,54.84l-.14-.05c7.62,5.55,10.78,7.1,14,9.53,6.81,5.2,4.71,7.54,11.63,12.75,2.34,1.76,5.93,3.4,13,6.63,12.67,5.75,11.59,4.58,14,6.12,9.53,6.17,7.52,12.46,16.75,18.86,6.39,4.44,8,1.9,15.82,7.14,6.58,4.44,6.57,7.07,12.56,11.73,8.72,6.79,11,3,20.94,9.18,4.74,3,10.14,8.42,20.93,19.38a75.93,75.93,0,0,0,8.38,7.65c1.28,1,2.76,2.05,10.7,7.14,7.7,4.94,7.52,4.71,7.91,5.1,7.07,7.08,5.39,20.43,6,20.39s.66-8.07.93-15.8c.36-9.9,0-12.14,1.4-15.81,1.92-5.12,5.23-7.85,11.17-12.75,9.24-7.63,12.43-6.51,16.74-12.75,3.31-4.78,2.1-6.41,5.59-10.2,5.14-5.59,9.13-3.53,12.09-8.16.6-.93,1.36-2.45,1.4-16.83,0-10.2-.35-11.66.93-14.27,2.13-4.35,4.79-3.65,9.3-8.67,4.89-5.43,8.52-13.75,6.52-16.32-1.36-1.74-4.21.55-13,.51-5.09,0-4.73-.8-7.91-.51-2,.18-4.45.69-14.89,6.12-7,3.62-7.69,4.33-10.23,4.59A23.19,23.19,0,0,1,364.68,74a45.23,45.23,0,0,1-7.44-3.57,112.74,112.74,0,0,1-11.17-7.14c-6.8-4.92-10.2-7.39-11.17-10.2-1.79-5.2.33-10.67.93-12.24a21.87,21.87,0,0,1,4.66-7.14c3.19-3.38,6.27-4.9,18.61-9.69,7.55-2.93,10-3.75,13.95-6.12,2.06-1.22,7.54-4.49,9-7.13l-1.41-1.54C379.45,9.24,378.1,11.79,377,11.34Z"/><path class="cls-3" d="M177.31,50.58l-.11-.08a2.25,2.25,0,0,0,.42.76Z"/><path class="cls-3" d="M752.29,194.12,748,198.54l-4.9,3.31-4.72-.52-3,5.89-8.35,4-3.56,6.26,6.17-2.08,6.81-1,6.85-2.18,10.83-2.3,6.42,1.85,3.38,2.66,2.83,5.2,7.36,1.56,3.89-4.74,2.19-6.07L778.74,207l.81-3.7.9-4.16,3.68-4.79,4.88-4.29,7.61-5.64,3.27-2.94-3-4.5-.92-2.86.65-3s1.91-3.71,3.4-6.54l4.3-3,3.39-2.43-4-.4-3.93.24-1,.22-2,.5-4.1,2.11-6.53,5.12-17.86,11.6-3.73,2.22h-.06l-7.87,5.36Z"/><polygon class="cls-3" points="8.43 55.7 32.97 55.87 44.78 52.97 51.31 50.92 62.03 47.16 71.66 42.39 78.19 38.63 97.61 22.94 102.58 19.86 107.39 17.82 111.59 16.96 115.63 14.06 122.15 13.89 125.57 14.06 128.21 15.26 132.56 17.14 138.31 21.74 143.59 25.67 144.99 28.23 152.49 33.41 151.18 28.86 146.4 21.39 137.57 13.51 128.37 8.79 120.61 8.79 115.4 11.47 109.87 14 104.81 16.2 98.81 19.75 93.75 24.14 88.23 28.03 77.96 36.31 74.01 38.17 68.16 41.72 60.74 43.92 54.42 44.76 49.37 47.3 46.52 48.82 40.84 49.5 37.36 50.51 32.94 51.69 27.88 52.03 23.15 51.69 14.69 51.3 8.44 51.69 5.13 48.54 0.34 48.15 0 48.07 0 52.93 2.06 53.48 8.43 55.7"/><polygon class="cls-3" points="10.64 156.79 18.37 160.33 23.52 160.33 30.14 157.18 37.5 157.18 44.12 157.18 49.64 155.21 77.6 129.24 82.02 129.24 85.69 129.24 90.84 129.24 96 129.24 102.99 125.3 108.14 118.21 108.14 112.31 109.98 103.65 113.29 96.56 114.76 90.27 113.29 83.18 111.81 77.67 111.81 73.73 115.49 67.44 121.01 63.5 124.32 59.17 129.84 59.17 134.99 59.17 139.41 56.42 143.82 51.69 151.55 44.61 153.76 40.28 159.27 38.31 152.65 33.98 152.49 33.41 144.99 28.23 143.59 25.67 138.31 21.74 132.56 17.14 128.21 15.26 125.57 14.06 122.15 13.89 115.63 14.06 111.59 16.96 107.39 17.82 102.58 19.86 97.61 22.94 78.19 38.63 71.66 42.39 62.03 47.16 51.31 50.92 44.78 52.97 32.97 55.87 8.43 55.7 2.06 53.48 0 52.93 0 171.22 5.13 165.45 10.64 156.79"/></g></g></svg>