<svg xmlns="http://www.w3.org/2000/svg" viewBox="0 0 1200 2159.91"><defs><style>.cls-1{fill:#0f1028;}</style></defs><title>Asset 23ThumbnailsJ&amp;amp;H</title><g id="Layer_2" data-name="Layer 2"><g id="dark"><polygon class="cls-1" points="1130.5 66.03 1086.52 56.51 1037.5 59.68 934.41 43.81 911.35 43.81 884.67 38.09 857.28 27.4 800.33 17.14 758.52 18.41 697.24 20.32 665.52 22.86 612.9 22.22 597.04 13.33 558.11 3.81 523.5 0 498.06 3.77 465.51 6.75 424.15 12.13 397.02 17.51 315.64 18.1 251.22 12.13 215.28 11.53 177.09 20.49 151.97 27.4 120.58 27.4 84.48 27.4 75.07 13.58 31.12 13.58 0 2.25 0 782.75 0 802.41 0 2159.91 1200 2159.91 1200 802.41 1200 91.78 1130.5 66.03"/></g></g></svg>