<svg xmlns="http://www.w3.org/2000/svg" viewBox="0 0 38.02 70.74"><defs><style>.cls-1{fill:#fff;}</style></defs><title>Asset hikeThumbnailsJ&amp;amp;H</title><g id="Layer_2" data-name="Layer 2"><g id="dark"><path class="cls-1" d="M38,63.13a.93.93,0,0,0-.52-.35,2.16,2.16,0,0,0-1.43,0c-.72.22-.72.44-1.17.57-.76.21-1.47-.28-2.95-1.09a6.43,6.43,0,0,1-1.56-1c-.1-.1-.2-.21-.29-.32L28.21,19.82a1.67,1.67,0,0,0,.66-.28c.85-.64,1-2.47.18-3.58A3.11,3.11,0,0,0,28,15.05l0-.81h-1.6l.09,1.37s0,.08,0,.12a.14.14,0,0,1-.05.08l-1.91,1.43a.1.1,0,0,0,0,.05l-.59,1.1a.14.14,0,0,1-.17.07l-.86-.19a.18.18,0,0,1-.12-.12L22,15.39s0,0,0-.05l-.58-.79a.15.15,0,0,1,0-.18l.42-.62a.1.1,0,0,1,0-.05,1.63,1.63,0,0,0,.88-1.13c0-.59-.5-.87-.41-1.32.11-.6,1.16-.48,1.89-1.07,1.21-1,.8-3.26.17-6.8a4.08,4.08,0,0,0-1-2.49A3.83,3.83,0,0,0,20.62,0c-.57,0-3.92,0-5.33,2.67a5.38,5.38,0,0,0-.3,4,.14.14,0,0,1,0,.15l-1,1.06a.12.12,0,0,1-.08,0l-2.68.69h-.06L10,8.45h0L7.53,7.93a.13.13,0,0,0-.12,0L6.14,8.8h0L4,10.38l-.05,0L2.77,12.78l0,0-.34,1.72a.25.25,0,0,1,0,.07L.73,16.42a.33.33,0,0,0,0,.06L0,18.82v9.83a.13.13,0,0,0,0,.1L2,31v0l2.81,2.63.07,0,1.51.42.08.05.58.74L7,35l.61,1.82v0l.18,2.79a.13.13,0,0,1,0,.06L6.67,42.83v0l-.26,2v0l-1.31,2.8,0,0L4.8,49.67v0l-.53,1.94v0L2.85,55.27v0L1.78,61.86l-.62,4.61v0L.06,69.94a.16.16,0,0,0,.14.2l4.24.22L4.8,70l.34.45,2.29.12,4.24.22a.16.16,0,0,0,.16-.12l.2-1v0l0-.52-.26-.3-1.56-.4-.05,0-.94-.68,0,0L6.92,65.24a.19.19,0,0,1,0-.19l1-1.64a.19.19,0,0,0,0-.08V60.56s0,0,0-.06l.43-.93v0l.44-3.15a.07.07,0,0,1,0-.05L10.66,53l0,0,1.91-2.35,0,0,4.08-7.3a.15.15,0,0,1,.18-.08l.76.21a.13.13,0,0,1,.07,0c3.24,3.17,4.08,4.83,4.21,5.78.09.65.22,1.3.31,2a5.8,5.8,0,0,0,.39,1.86c.19.44.3.48.56,1a7.42,7.42,0,0,1,.48,1.39c.42,1.68.27,2.82.61,4.25a8.31,8.31,0,0,0,1,2.43.13.13,0,0,1,0,.08l0,1v0L26,65l.25.63v0l.17,1v0l.81,2.22v0l.7,1.16a.16.16,0,0,0,.21.06l1.75-.89v0a1,1,0,0,1,.34-.19l.14-.06v0L32,68.19a.16.16,0,0,0,0-.26.25.25,0,0,1,.1-.45c.34-.08.76-.18,1.22-.32a8.11,8.11,0,0,0,3-1.43C37.28,65,38.29,63.72,38,63.13Zm-9.23-6.94c-.26-2-.39-3-.43-3.86-.15-2.8.15-4.26-.74-6.37a9,9,0,0,0-.52-1c-1.09-1.93-2.64-4.76-4.94-9h0c-.26-.58-.5-1.24-.31-1.38s.35,0,.44.08c.69.38.58,1.13,1,1.35.68.36,2.61-.87,2.64-2.39a2.05,2.05,0,0,0-.29-1.05.1.1,0,0,0,0,0l-1.32-1-.09,0-2-.09a.17.17,0,0,1-.11-.06l-1.53-2a.17.17,0,0,1,0-.14L22,24.41v-.05l0-1.54a.15.15,0,0,1,.14-.15,4.21,4.21,0,0,0,2-.66,3.08,3.08,0,0,1,1.21-.72c.35-.07.6,0,.89-.22a1.48,1.48,0,0,0,.45-.63l.09-.11,2.51,39A24.12,24.12,0,0,1,28.72,56.19Z"/></g></g></svg>