<svg xmlns="http://www.w3.org/2000/svg" viewBox="0 0 1200 2129.64"><defs><style>.cls-1{fill:#3b439b;}</style></defs><title>Asset 22ThumbnailsJ&amp;amp;H</title><g id="Layer_2" data-name="Layer 2"><g id="dark"><polygon class="cls-1" points="1132.51 232.31 1055.92 199.62 1047.82 184.73 1016.3 176.22 979.37 164.16 951.27 154.85 936.52 151.99 920.08 152.94 885.51 148.18 877.77 148.18 868.83 146.47 859.64 143.26 840.54 140.18 826.52 140.56 805.97 141.14 795.33 141.9 777.68 141.71 772.37 139.04 759.31 136.19 747.71 135.04 739.17 136.17 728.26 137.07 714.38 138.68 705.29 140.29 677.99 140.47 656.39 138.68 644.34 138.5 631.53 141.19 623.11 143.26 612.58 143.26 600.47 143.26 597.31 139.12 582.58 139.12 568.89 134.66 557.84 132.48 550.6 134.66 377.57 49.26 361.04 40.17 354.12 38.66 344.12 38.05 331.81 41.69 316.82 41.69 304.13 41.69 291.06 40.47 278.75 37.75 270.68 34.42 260.3 37.75 251.45 37.75 241.07 37.75 235.69 37.75 229.53 37.75 217.42 35.87 196.56 35.87 153.16 19.41 124.77 8.44 103.87 5.06 87.26 7.6 79.22 3.38 67.97 3.8 63.15 2.11 52.43 0 46.54 1.69 40.11 0 33.15 2.11 24.04 0 16 5.06 10.11 7.17 1.53 14.35 0 14.91 0 742.95 0 2129.64 1200 2129.64 1200 742.95 1200 232.31 1132.51 232.31"/></g></g></svg>