<svg xmlns="http://www.w3.org/2000/svg" viewBox="0 0 65.99 69.21"><defs><style>.cls-1{fill:#3b439b;}.cls-2{fill:#0f1028;}</style></defs><title>Asset 39ThumbnailsJ&amp;amp;H</title><g id="Layer_2" data-name="Layer 2"><g id="moose"><path class="cls-1" d="M65.93,4.87a1.93,1.93,0,0,1,0,.73l-.24.13a1,1,0,0,0-1.32-.79l0-.59.3-.1A1,1,0,0,1,65.93,4.87Z"/><polygon class="cls-1" points="4.47 3.99 6.02 2.28 7.26 0.41 9.53 0 12.34 0.26 13.16 1.08 14.22 4.72 4.47 3.99"/><rect class="cls-1" x="2.56" y="3.58" width="9.4" height="1.76" rx="0.73" transform="translate(-0.17 0.29) rotate(-2.27)"/><path class="cls-1" d="M14.66,55.23c.32-1.21.68-2.41.93-3.63.28-1.4-.53-2.56-1-3.78-.27-.73-.64-1.42-1-2.12a10.56,10.56,0,0,0-.15,3A10.93,10.93,0,0,1,13,54a31.72,31.72,0,0,0-1.85,7.18,21.86,21.86,0,0,1-.75,4c-.38,1.2-.11,1.25.73,1.67a6.28,6.28,0,0,0,.73.25c.7.22,1.5.23,2,.87-.13-1.48-.3-3-.38-4.44A26.39,26.39,0,0,1,14.66,55.23Z"/><path class="cls-1" d="M35,14.21a1.92,1.92,0,0,0,.47.31,3.07,3.07,0,0,0,.07-.53c0-.31-.13-.63,0-.9l-.9.51A4.58,4.58,0,0,0,35,14.21Z"/><path class="cls-1" d="M52.09,8.37a1.92,1.92,0,0,0,.47.31,3.21,3.21,0,0,0,.07-.53c0-.31-.13-.63,0-.91l-.9.51A4.09,4.09,0,0,0,52.09,8.37Z"/><path class="cls-1" d="M13.83,67.94v0h0v0Z"/><path class="cls-1" d="M13.83,67.94v0h0v0Z"/><path class="cls-1" d="M13.83,67.94v0h0v0Z"/><path class="cls-1" d="M64,4.42a7.36,7.36,0,0,0-1.05.14c-2.82.56-5.65,1.12-8.46,1.71-1.35.28-2.68.64-4,1h0c-.16,0-.34.06-.5.09a4.9,4.9,0,0,1-.88.19L35,12.37h0l-.38.19a6.44,6.44,0,0,1-.63.36.76.76,0,0,1-.28.19Q29.24,15,24.83,17a4,4,0,0,1-2,.46,1.65,1.65,0,0,0-1.67,1.06c-.11.21-.23.47-.41.55a2.75,2.75,0,0,1-.82.1,2.85,2.85,0,0,1,.16-.84c.11-.23.45-.36.52-.58A1.08,1.08,0,0,0,20.4,17c-.08-.13-.35-.15-.54-.22,0,.2,0,.41-.07.61a4.27,4.27,0,0,1-.2.56c-.39-.29-.68-.54-1-.74-.65-.41-1.58-.44-1.74,0a6.44,6.44,0,0,0-.42,2.24,1.33,1.33,0,0,1-1.13,1.48,7.52,7.52,0,0,0-1.1.2c0-.27-.14-.59-.18-.92a14.48,14.48,0,0,0-1.14-4.65.86.86,0,0,1,.09-.73c.35-.46.17-.73-.23-1-.73-.48-1.46-1-2.18-1.46-.15-.1-.22-.31-.37-.53,1.56-.11,1.25.09,1.94-1.3a14.61,14.61,0,0,0,.57-1.48L13.46,9c0-.87-1-1.77.21-2.56.25,0,.61,0,1,0a5.66,5.66,0,0,1,.56.13c1,.19,1.45,0,1.83-.62-.76-.32-1.5-.69-2.28-.94s-.88-.77-1.07-1.48A5.36,5.36,0,0,0,12.38.79a4.54,4.54,0,0,0-5.48.28A6,6,0,0,0,5.64,6.81a18,18,0,0,1,.58,2.33C5.09,8.82,4.86,9,4.45,9.9a6.43,6.43,0,0,1-1,1.48C3,11.93,2.44,12.38,2,13A11.05,11.05,0,0,0,0,19.7c0,1.55.14,3.1.29,4.65.13,1.29.33,2.58.54,3.86.37,2.2,1.08,4.34.91,6.61a1.88,1.88,0,0,0,.29.92c.55,1,1.53,1.82,1.52,3.13a2.94,2.94,0,0,0,.13,1c.45,1.16.92,2.31,1.43,3.44a35.19,35.19,0,0,1,1.9,4,10.64,10.64,0,0,1-.31,6.5,26.85,26.85,0,0,0-1.17,5.3,10.64,10.64,0,0,1-1.7,5.54,1.34,1.34,0,0,0,0,1.28c.61.43.49,1,.5,1.52,0,.75.31,1.59,1.2,1.62s1.59,0,2.39-.07c.35,0,.71-.08,1.06-.06,1.19.07,2.37.24,3.56.25,1,0,1.33-.38,1.31-1.22h0s0-.41,0-.42c-.52-.64-1.28-.27-2-.49a6.28,6.28,0,0,1-.73-.25c-.84-.42-1.11-.47-.73-1.67a21.86,21.86,0,0,0,.75-4A31.72,31.72,0,0,1,13,54a10.93,10.93,0,0,0,.51-5.32,10.56,10.56,0,0,1,.15-3c.33.7.7,1.39,1,2.12.47,1.22,1.28,2.38,1,3.78-.25,1.22-.61,2.42-.93,3.63a26.39,26.39,0,0,0-1.21,8.27c.08,1.49.25,3,.38,4.44l0,0v0a4.28,4.28,0,0,0,3.47.25,1.78,1.78,0,0,1,1.07,0,8,8,0,0,0,4,.09,1.1,1.1,0,0,0,.73-.69,1,1,0,0,0-.52-.84,7.77,7.77,0,0,0-1.62-.47,2.09,2.09,0,0,1-1.68-1.24,4.4,4.4,0,0,1-.16-1.77c.14-1.6.28-3.22.58-4.8.44-2.31,1-4.59,1.54-6.89a7.61,7.61,0,0,0,.3-2.1,15.42,15.42,0,0,0-2-5.75c-.66-1.27-1.24-2.58-1.85-3.87-.48-1-1-2.08-1.44-3.13a4.58,4.58,0,0,1-.42-1.38c-.14-1.69-.19-3.39-.31-5.08-.06-.8-.19-1.59-.28-2.32a6.73,6.73,0,0,0,2-.81c1.53-1.3,3-2.7,4.41-4.11a3.17,3.17,0,0,0,.94-1.46,1,1,0,0,1,.79-.9,6.83,6.83,0,0,0,2.9-2.66c.18-.26.32-.64.57-.77,3-1.44,6-2.94,9.1-4.25A108.5,108.5,0,0,1,50.69,7.94C54,7.06,57.42,6.34,60.8,5.59c1.28-.29,2.58-.46,3.87-.7l-.25-.55A2.54,2.54,0,0,1,64,4.42Z"/><path class="cls-2" d="M13.85,45.14c.21-.07-.12-.24.49.75a10.12,10.12,0,0,1,1.15,2.18,8.29,8.29,0,0,1,.42,2.54,10,10,0,0,1-.26,2.25c-.32,1.45-.32,2.78-.54,3.37A17.9,17.9,0,0,0,14.25,60c0,.07-.16,1.36-.16,1.36a4.5,4.5,0,0,0-.08,1,.81.81,0,0,1,0,.09l0,.45c.48,4.59.08,4.23.08,4.23s-.13-.35-.52-.62-.72-.2-1.44-.25c-.94-.07-1.58-.12-1.83-.46s0-.88.21-1.49a35.06,35.06,0,0,0,1.31-4.24c.34-1.37.07-1.18.44-2.82s.65-2,1-3.44a22.25,22.25,0,0,0,.61-3.62C14.2,46.48,13.48,45.27,13.85,45.14Z"/></g></g></svg>