<svg xmlns="http://www.w3.org/2000/svg" viewBox="0 0 1201.75 2984.62"><defs><style>.cls-1{fill:#0f1028;}</style></defs><title>Asset 44ThumbnailsJ&amp;amp;H</title><g id="Layer_2" data-name="Layer 2"><g id="Highlight"><polygon class="cls-1" points="1132.14 91.24 1088.11 78.08 1039.01 82.47 935.77 60.53 912.67 60.53 885.96 52.64 858.53 37.87 801.49 23.69 759.62 25.44 698.26 28.07 666.49 31.58 613.79 30.71 597.9 18.42 558.92 5.26 524.27 0 498.79 5.21 466.19 9.34 424.76 16.76 397.6 24.19 316.1 25.02 251.58 16.76 215.59 15.94 177.34 28.32 152.19 37.87 120.76 37.87 84.61 37.87 75.18 18.77 31.17 18.77 0 3.1 0 1081.62 0 1108.79 0 2984.63 1201.75 2984.63 1201.75 1108.79 1201.75 126.82 1132.14 91.24"/></g></g></svg>