<svg xmlns="http://www.w3.org/2000/svg" viewBox="0 0 75.83 71.58"><defs><style>.cls-1{fill:#fff;}.cls-2{fill:none;stroke:#fff;stroke-miterlimit:10;stroke-width:1.49px;}.cls-3{fill:#f9f9fa;}.cls-4{fill:#fdfefe;}</style></defs><title>Asset bikeThumbnailsJ&amp;amp;H</title><g id="Layer_2" data-name="Layer 2"><g id="dark"><path class="cls-1" d="M55.36,2.92A6.54,6.54,0,0,0,43.51,7.86l12.91-.54A6.56,6.56,0,0,0,55.36,2.92Z"/><path class="cls-1" d="M58,36.62l.11.71v1.48a.76.76,0,0,0,0,.5s.12.31.26.3.17-.13.19-.21,0-.2,0-.3.17-.08.36-.21.09-.09.3-.29.25-.19.33-.3.07-.28.17-.53a1.28,1.28,0,0,1,.26-.4l.11-.42V35.28a1.16,1.16,0,0,0-.23-.64c-.22-.27-.51-.33-1-.5a4,4,0,0,1-1.07-.51c-.14-.09-.39-.31-1.17-1.89L56.31,31l.67.18.88.38c0,.37.07.67.27.75a.23.23,0,0,0,.17,0c.09,0,.09-.12.18-.2s.24-.08.31-.13.09-.4-.37-1.42l-.33-.5-1.28-.77L55.13,28a10.75,10.75,0,0,1-.67-1.36c-.3-.74-.36-1.13-.55-1.65a8.78,8.78,0,0,0-1.22-2.07c-.5-.76-1-1.71-2.09-3.61A10.22,10.22,0,0,1,49.48,17c-.13-1,.24-1.93-.23-2.76-.07-.12-.27-.44-.16-.57s.35,0,.45,0c.44.11.53.37.85.46a.93.93,0,0,0,.79-.11.69.69,0,0,0,.18-.35c.11-.34,0-.5.14-.64s.28-.06.34-.18-.07-.25,0-.35.17,0,.37-.09a.58.58,0,0,0,.34-.3c.06-.13,0-.19.05-.25s.37.09.62,0a.59.59,0,0,0,.3-.34l-.21-1.87.39-.18a1,1,0,0,0,.44-.3,1,1,0,0,0,.16-.37c.15-.59,0-.83.16-1.08A.74.74,0,0,1,55,7.45c.29.26.65.5.91.39.55-.24.52-2-.07-3.33a5.59,5.59,0,0,0-5-3.12,5.23,5.23,0,0,0-4.3,2,6.62,6.62,0,0,0-.9,3v.46l.39.59-1.9.44A18.71,18.71,0,0,0,40.46,8,22.41,22.41,0,0,0,30.2,12.6,27,27,0,0,0,25,17.41a10.71,10.71,0,0,0-2.65,4.87A5.21,5.21,0,0,0,22.6,26a5.07,5.07,0,0,0,3.58,2.3l1.15,1.22,7.25,7.6a1.33,1.33,0,0,1,0,.86,1.53,1.53,0,0,1-.82.76c-1.15.55-2.2,3.33-4,6.48-1.68,2.94-2.52,4.41-3.77,4.85a2.83,2.83,0,0,0-1.57,1A2.68,2.68,0,0,0,24.09,53l4.2,3.72,1.09,1.4,2.19.62a1.08,1.08,0,0,0,.87-.31c.16-.22.16-.57-.25-1.43a19,19,0,0,0-1.51-2.35,4.17,4.17,0,0,1-1-2.34,2.78,2.78,0,0,1,.58-1.57l2.81-3.54L37,43.1l1.41-2.21,1.7-1.9.61-1.25-2.25-6.15a16,16,0,0,0-.9-2.47,15.37,15.37,0,0,0-4-5.16,10.36,10.36,0,0,1,3.82-2.77c1.84-.73,2.45-.19,4.49-.89a9.89,9.89,0,0,0,2-1,1.3,1.3,0,0,1,.75.15,1.32,1.32,0,0,1,.51.66c.16.4.27.33,2.74,3.42,1.86,2.32,1.86,2.45,2.26,2.74a3,3,0,0,1,.83.87,3.23,3.23,0,0,1,.42,1,9.15,9.15,0,0,0,1.32,2.29c1.42,2.11,1.89,2.18,2,3.13.07.53,0,.81.22,1.23.34.57.79.48,1.4,1.18a2.63,2.63,0,0,1,.67,1.23,10.79,10.79,0,0,1,0,1.12l.06.78a.28.28,0,0,0,.2.16.27.27,0,0,0,.22-.08V38.5l0-.91V36.53l.22,0"/><circle class="cls-2" cx="15.72" cy="55.85" r="14.98"/><circle class="cls-3" cx="33.51" cy="58.75" r="4.43"/><circle class="cls-2" cx="60.11" cy="55.85" r="14.98"/><circle class="cls-1" cx="60.7" cy="56.74" r="3.96"/><circle class="cls-1" cx="16.02" cy="56.06" r="3.96"/><path class="cls-4" d="M15.72,53.69,26.34,38.48l-2.13-9.06A4.6,4.6,0,0,0,23,29c-.7-.12-1,0-1.34-.25s-.27-.47-.67-.8a2.94,2.94,0,0,0-1.1-.46c-1.08-.37-1.62-.56-1.64-.8s.09-.3.68-.57l2.1.23h3.53a17.93,17.93,0,0,1,2.56-.23c1.11,0,3.14-.07,3.32.57.07.25-.17.5-.21.54-.43.45-1.26.23-1.81.17a4.81,4.81,0,0,0-3.23,1L28,37.32l22.37-3.4-.76-2.8-.38-1,1.14-.68,1.51.15,1.74-.45.9-.61,1.29.23,2.41.38,1.44-.91L60.49,27,62.15,27l.66.59L61.5,29.4a4.71,4.71,0,0,1,0,2.63,1.75,1.75,0,0,0-.19,1c.06.37.26.61.53,1.42.08.23.1.31.06.34s-.73-.35-1.13-.91c-.21-.29-.67-.92-.48-1.5.11-.32.33-.34.51-.67a1.87,1.87,0,0,0,0-1.47l-1.3.25a1.13,1.13,0,0,0-.57.57,1.11,1.11,0,0,0,0,.68c.27,1-1,2.33-1.38,2.74a5.92,5.92,0,0,1-2.21,1.46L54,36.27l-.25-1.16a6,6,0,0,0,.79-.21,5.23,5.23,0,0,0,2-1.08,2.64,2.64,0,0,0,1-1.53A1.68,1.68,0,0,0,57.23,31a1.62,1.62,0,0,0-1-.58,2.49,2.49,0,0,0-.79.11c-.42.09-.77.18-1,.25l-3,.33,3.28,11.31,5.34,12,.56,1.82-.56.53-1-1.2-7-15L50.79,36,28.14,38.63,16.71,54.78Z"/><polygon class="cls-4" points="28 37.32 33.97 57.02 51.65 37.32 53.23 39.62 34.76 58.75 33.51 60.39 26.99 38.04 28 37.32"/><ellipse class="cls-1" cx="30.35" cy="52.6" rx="1.83" ry="3.26"/><rect class="cls-1" x="16.05" y="57.19" width="20.43" height="1.7" transform="translate(7.85 -2.95) rotate(7.54)"/></g></g></svg>