<svg xmlns="http://www.w3.org/2000/svg" viewBox="0 0 75.35 71.33"><defs><style>.cls-1{fill:#3b439b;}.cls-2{fill:none;stroke:#3b439b;stroke-miterlimit:10;}</style></defs><title>Asset 41ThumbnailsJ&amp;amp;H</title><g id="Layer_2" data-name="Layer 2"><g id="dark"><circle class="cls-1" cx="33.27" cy="58.75" r="4.43"/><circle class="cls-1" cx="60.46" cy="56.74" r="3.96"/><circle class="cls-1" cx="15.78" cy="56.06" r="3.96"/><path class="cls-1" d="M55.12,2.92A6.55,6.55,0,0,0,43.26,7.86l12.91-.54A6.5,6.5,0,0,0,55.12,2.92Z"/><path class="cls-1" d="M57.76,36.62l.1.71v1.48a.83.83,0,0,0,0,.5s.12.31.27.3.16-.13.19-.21,0-.2,0-.3.17-.08.36-.21.09-.09.3-.29.25-.19.33-.3.07-.28.17-.53a1.28,1.28,0,0,1,.26-.4l.1-.42V35.28a1.14,1.14,0,0,0-.22-.64c-.22-.27-.51-.33-1-.5a4,4,0,0,1-1.08-.51c-.13-.09-.39-.31-1.16-1.89-.15-.3-.26-.55-.35-.73l.68.18.88.38c0,.37.07.67.27.75a.23.23,0,0,0,.17,0c.09,0,.09-.12.17-.2s.25-.08.32-.13.09-.4-.37-1.42l-.33-.5-1.28-.77L54.88,28a11,11,0,0,1-.66-1.36c-.3-.74-.36-1.13-.55-1.65a9.54,9.54,0,0,0-1.22-2.07c-.5-.76-1-1.71-2.09-3.61A10.49,10.49,0,0,1,49.23,17c-.13-1,.25-1.93-.23-2.76-.07-.12-.26-.44-.16-.57s.36,0,.46,0c.44.11.53.37.85.46a.91.91,0,0,0,.78-.11.79.79,0,0,0,.19-.35c.11-.34,0-.5.13-.64s.29-.06.35-.18-.07-.25,0-.35.17,0,.37-.09a.6.6,0,0,0,.34-.3c.06-.13,0-.19,0-.25s.37.09.62,0a.59.59,0,0,0,.3-.34l-.21-1.87.39-.18a1,1,0,0,0,.44-.3,1,1,0,0,0,.16-.37c.15-.59,0-.83.16-1.08a.73.73,0,0,1,.5-.27c.3.26.66.5.92.39.55-.24.51-2-.07-3.33a5.6,5.6,0,0,0-5-3.12,5.22,5.22,0,0,0-4.3,2,6.49,6.49,0,0,0-.9,3c0,.19,0,.35,0,.46l.39.59-1.9.44A18.83,18.83,0,0,0,40.21,8,22.42,22.42,0,0,0,30,12.6a26.68,26.68,0,0,0-5.24,4.81,10.71,10.71,0,0,0-2.65,4.87A5.2,5.2,0,0,0,22.35,26a5.1,5.1,0,0,0,3.59,2.3l1.15,1.22,7.24,7.6a1.33,1.33,0,0,1,0,.86,1.5,1.5,0,0,1-.82.76c-1.14.55-2.19,3.33-4,6.48-1.68,2.94-2.51,4.41-3.76,4.85a2.88,2.88,0,0,0-1.58,1A2.78,2.78,0,0,0,23.84,53L28,56.73l1.1,1.4,2.19.62a1.09,1.09,0,0,0,.87-.31c.16-.22.15-.57-.25-1.43a19,19,0,0,0-1.51-2.35,4.2,4.2,0,0,1-1-2.34,2.94,2.94,0,0,1,.58-1.57l2.81-3.54,3.9-4.11,1.42-2.21,1.7-1.9.61-1.25-2.26-6.15a14.19,14.19,0,0,0-.9-2.47,15.24,15.24,0,0,0-4-5.16,10.36,10.36,0,0,1,3.82-2.77c1.83-.73,2.45-.19,4.48-.89a9.75,9.75,0,0,0,2-1,1.3,1.3,0,0,1,.75.15,1.32,1.32,0,0,1,.51.66c.16.4.27.33,2.74,3.42,1.86,2.32,1.86,2.45,2.25,2.74a2.94,2.94,0,0,1,.84.87,3.23,3.23,0,0,1,.42,1,9.15,9.15,0,0,0,1.32,2.29c1.41,2.11,1.88,2.18,2,3.13.08.53,0,.81.23,1.23.34.57.78.48,1.39,1.18a2.55,2.55,0,0,1,.68,1.23,10.79,10.79,0,0,1,.05,1.12l.06.78a.26.26,0,0,0,.19.16.28.28,0,0,0,.23-.08V38.5l0-.91V36.53l.22,0"/><circle class="cls-2" cx="15.48" cy="55.85" r="14.98"/><circle class="cls-2" cx="59.86" cy="55.85" r="14.98"/><path class="cls-1" d="M15.48,53.69,26.09,38.48,24,29.42A4.6,4.6,0,0,0,22.76,29c-.7-.12-1,0-1.35-.25s-.27-.47-.67-.8a2.87,2.87,0,0,0-1.09-.46C18.57,27.16,18,27,18,26.73s.08-.3.67-.57l2.11.23h3.52a18.1,18.1,0,0,1,2.57-.23c1.1,0,3.14-.07,3.32.57.06.25-.18.5-.21.54-.43.45-1.26.23-1.81.17a4.85,4.85,0,0,0-3.24,1l2.82,8.83,22.36-3.4-.75-2.8-.38-1,1.13-.68,1.51.15,1.74-.45.91-.61,1.28.23,2.42.38,1.44-.91L60.25,27,61.91,27l.66.59L61.25,29.4a4.53,4.53,0,0,1,0,2.63,1.84,1.84,0,0,0-.19,1c.06.37.27.61.54,1.42.08.23.09.31.06.34s-.73-.35-1.13-.91a1.81,1.81,0,0,1-.48-1.5c.1-.32.32-.34.5-.67a1.79,1.79,0,0,0,0-1.47l-1.29.25a1.13,1.13,0,0,0-.57.57,1.11,1.11,0,0,0,0,.68c.27,1-1,2.33-1.39,2.74a5.82,5.82,0,0,1-2.2,1.46l-1.39.37-.25-1.16a6.4,6.4,0,0,0,.79-.21,5.2,5.2,0,0,0,2-1.08,2.61,2.61,0,0,0,1-1.53A1.77,1.77,0,0,0,57,31a1.62,1.62,0,0,0-1-.58,2.49,2.49,0,0,0-.79.11c-.43.09-.78.18-1,.25l-3,.33,3.28,11.31,5.33,12,.57,1.82-.57.53-1-1.2-7-15L50.54,36,27.89,38.63,16.46,54.78Z"/><polygon class="cls-1" points="27.76 37.32 33.72 57.02 51.4 37.32 52.98 39.62 34.52 58.75 33.27 60.39 26.74 38.04 27.76 37.32"/><ellipse class="cls-1" cx="30.11" cy="52.6" rx="1.83" ry="3.26"/><rect class="cls-1" x="15.8" y="57.19" width="20.43" height="1.7" transform="translate(7.84 -2.91) rotate(7.54)"/></g></g></svg>