<svg xmlns="http://www.w3.org/2000/svg" viewBox="0 0 512.46 621.18"><defs><style>.cls-1{fill:#7274b7;}.cls-2{fill:#ee2f24;}</style></defs><title>Asset 33ThumbnailsJ&amp;amp;H</title><g id="Layer_2" data-name="Layer 2"><g id="moose"><polygon class="cls-1" points="479.77 48.33 454.32 56.3 358.79 34.84 351.52 39.94 334.38 39.51 325.04 34.84 325.04 22.09 291.81 23.79 291.81 14.45 281.94 14.45 279.34 21.24 267.92 21.67 275.19 9.35 259.09 0 240.92 17 220.67 13.6 174.46 27.62 131.88 73.08 84.11 75.63 84.11 83.28 65.94 90.5 72.17 95.17 71.65 104.1 86.19 105.8 105.4 135.96 106.44 150.83 146.42 171.23 153.69 175.48 168.75 177.6 180.69 174.2 173.42 182.27 178.09 189.07 160.44 185.67 142.27 181.42 135 169.53 128.77 168.68 133.44 182.7 138.11 189.07 129.29 193.32 121.5 190.77 114.75 188.65 102.29 189.5 100.73 176.75 65.94 173.78 61.79 181.85 48.81 176.32 9.87 186.1 43.62 209.47 28.04 213.29 25.44 231.56 34.27 234.96 44.13 237.08 47.25 244.73 65.94 246.86 74.25 244.73 83.08 246.86 93.46 250.25 94.5 260.45 131.37 245.16 140.19 252.38 134.48 254.93 125.13 254.93 126.69 263 133.44 265.13 135.52 288.07 111.63 296.57 104.36 291.89 97.61 296.57 91.38 306.34 77.88 306.34 71.13 295.72 62.83 300.39 47.77 306.34 35.83 315.69 22.85 325.88 17.65 335.23 6.75 346.7 0 350.53 5.19 361.57 9.35 375.59 17.14 373.89 21.81 383.67 33.23 383.67 46.21 387.49 46.73 394.71 35.31 390.04 20.77 390.04 12.46 392.59 20.77 413.41 25.44 424.88 52.44 431.25 59.71 425.73 69.58 425.73 73.21 411.28 89.83 397.26 77.88 421.06 75.29 441.45 76.33 455.05 70.61 455.05 74.25 464.39 69.06 479.69 72.69 488.19 82.04 485.64 89.31 476.72 130.84 479.26 140.71 497.54 158.88 477.14 160.96 489.04 172.38 489.04 184.84 483.51 195.23 482.66 186.4 499.23 177.58 502.21 176.02 527.28 147.46 547.67 146.42 559.14 139.67 563.39 132.92 557.87 126.17 568.07 113.71 568.07 92.42 584.64 92.42 593.98 86.71 596.96 75.81 588.03 69.06 589.31 66.98 583.36 27 603.75 5.19 616.08 19.73 621.17 22.85 614.8 34.79 619.05 62.31 597.81 66.98 607.58 89.83 605.88 100.73 595.68 103.33 613.1 110.08 613.1 112.15 598.23 144.86 591.43 158.36 573.59 177.06 565.94 197.31 563.39 203.54 543.42 260.13 521.75 265.84 504.76 287.13 494.99 266.88 487.34 268.96 470.34 295.96 460.57 318.81 424.03 327.63 410.01 339.57 404.91 347.88 398.96 354.11 384.09 356.19 399.81 365.02 401.09 375.4 390.89 371.25 404.91 370.21 411.28 354.11 413.41 341.13 429.55 339.06 441.88 330.39 458.87 347.88 454.2 338.02 467.79 320.36 472.47 342.17 479.69 363.98 461.42 378.52 460.15 380.59 451.22 390.46 454.2 405.52 453.77 408.63 433.38 407.59 425.31 402.92 415.11 407.07 410.86 413.31 416.81 443.94 401.94 446.54 421.06 477.17 430.83 484.96 421.48 492.23 420.21 488.07 436.78 512.47 444.83 512.47 63.61 479.77 48.33"/><ellipse class="cls-2" cx="327.01" cy="281.91" rx="11.85" ry="11.09"/></g></g></svg>