<svg xmlns="http://www.w3.org/2000/svg" viewBox="0 0 160.56 70.34"><defs><style>.cls-1{fill:#fafcfa;}.cls-2{fill:none;stroke:#fff;stroke-miterlimit:10;stroke-width:1.59px;}</style></defs><title>Asset mushThumbnailsJ&amp;amp;H</title><g id="Layer_2" data-name="Layer 2"><g id="dark"><path class="cls-1" d="M114.72,48a4.76,4.76,0,0,0-2.31,1.23c-1.58,1.59-.65,3.32-2.32,6.66a8.78,8.78,0,0,1-2,2.75c-.61.54-.71.45-1.66,1.15a12.53,12.53,0,0,0-3.26,3.33c-1,1.62-.82,2.34-.76,2.53s.26.73.76.87c.83.24,1.73-1.37,2.68-2.53,2.87-3.52,7.78-5.11,8.6-4.2.1.11.12.34.15.8a5,5,0,0,1-.65,2.75c-.49.87-.67.65-1.3,1.59a6.47,6.47,0,0,0-1.09,3.25c0,.75-.05,1.25.29,1.64a2.13,2.13,0,0,0,2.82,0s.73-.68.58-1.35-.71-.67-.72-1.15.35-.67.5-.8a42.91,42.91,0,0,0,5.72-5.86,27,27,0,0,1,2.31-3.4,5.2,5.2,0,0,1,2-1.66c1-.36,1.74-.17,4.19.43s3.67.89,3.89.93c2.88.55,4.32.83,5.5.06.93-.6,1.08-1.42,2.08-1.57.72-.11.83.28,2,.44,1.58.21,2.3-.44,3,.06a1.84,1.84,0,0,1,.57,1.33,3.2,3.2,0,0,1-.69,2.27,3.65,3.65,0,0,1-2.84,1.39c-.89,0-1.35-.45-1.77-.13a1.23,1.23,0,0,0-.32,1.26,1.43,1.43,0,0,0,.76.89l4.88-1,1.12-.57,1.51-2.71,7.07,3.78a3.07,3.07,0,0,0,1.46,1.14c1,.36,2.45.19,3-.69a1.17,1.17,0,0,0,.13-1c-.29-.58-1.43-.79-2.84-.32l-1.58-2.39-6.25-6.89a28,28,0,0,1,0-4,2.07,2.07,0,0,1,.25-.95c.14-.23.44-.61,2.09-1.26.35-.14.84-.32,1.45-.5l1.2,1.64.57.38.94.25.7-.19.06-2.52h2.84l.38-1.33-2.65-3.09V39l-1.56-2.32-.28-3.76-1.49,1.53-.38-1.12-.58-.41L151.17,35l-.74.45-2,.09c-5.16,2.15-8.81,3.69-10,4.2-.12.05-.46.2-.94.36a12.32,12.32,0,0,1-2.41.49c-1.57.28-1.64,1.06-3.5,1.82a10.57,10.57,0,0,1-3,.66c-2.57.36-2.72-.14-5.52.17a7.34,7.34,0,0,1-2.06,0,8.53,8.53,0,0,1-2-.66c-2.32-1-2.37-.62-3.51-1.24a4.79,4.79,0,0,1-2.51-2.23,7.77,7.77,0,0,1-.15-3.28c0-.65.1-1.19.15-1.57l-.77.84,0-.88-.44-.4,0,.51-.18.59-.47-.91-.22.76-.51-.47.18.76-.62-.32.07.47-.73-.07.4.36H109l.55.4-.84,0,.51.36-1.35.41h1l-1.42.51,1.16-.08-1.71,1,1.68-.55L106.62,39l1.72-.8-1.83,1.82,1.83-1.16-2,2.22,2.27-1.82-2.08,3.1L108.85,40,107,43.3l2-2.44-1.53,3.06L109.14,42l-1.75,3.14,2.48-2.38-2,3.18,2.41-2.37-2,3.72L111,44.62l-2.27,3.86,3.14-3.06-2,3.5,2.59-2.41L110.49,50l2.56-3-1.57,2.56,2-1.83Z"/><line class="cls-2" x1="84.55" y1="54.55" x2="147.25" y2="51.61"/><line class="cls-2" x1="85.96" y1="50.14" x2="148.65" y2="47.21"/><path class="cls-1" d="M6.61,12.53H8.45l-1.19,1H0v1l2.57,1,2.78-1A13.09,13.09,0,0,0,4.52,16c-.92,2-.77,3.73-1.07,8.55S3,32,4.4,33.49a6.84,6.84,0,0,1,1.54,2.44A6.12,6.12,0,0,1,6.3,38a14.82,14.82,0,0,0,.24,7.48c.59,1.9,1.42,3,1.66,5.46A16.85,16.85,0,0,1,8,55.08c-.47,3.49-1.29,4.82-.83,7.24a8.13,8.13,0,0,0,.24.92l-3.7-.16V65.7H66a23.12,23.12,0,0,0,10.71-2.84c6.1-3.39,10-9.3,9.45-9.86,1.57-1.94,3.4-4.45,2.87-5-.31-.36-1.38.08-2.31.46-3.18,1.32-5,3.49-5.55,3.7C78,53.44,73.7,54,67,52.34,52.7,48.79,35,41,31.89,39.63L31.49,38a13.14,13.14,0,0,0-1.16-5.19,12.85,12.85,0,0,0-1.92-3,20.17,20.17,0,0,0-2.11-2.05c-1.84-1.66-2.05-1.61-2.53-2.33a7.79,7.79,0,0,1-1.09-2.93c-.29-1.27-.13-1.43-.41-3.15s-.45-2.67-1-3.21a7.09,7.09,0,0,0-2.8-1.43c-.86-.3-1.32-.34-1.37-.62s.88-.71,2.05-1.7A7.8,7.8,0,0,0,21,10.16a6.78,6.78,0,0,0,.54-3.76A8.63,8.63,0,0,0,20.28,2,3.8,3.8,0,0,0,18.35.09c-1-.31-1.48.28-3.37.58C12.93,1,12.78.4,11.62.82A5.28,5.28,0,0,0,8.54,4.53a7.77,7.77,0,0,0,.19,3.4c.38,2,.93,2.51.64,3S7.84,11.88,4,11L0,10.6v1.28H1.38l2.11,1ZM70,63.18l.57-2.35a40.84,40.84,0,0,0,7.36-1.73C75.94,60.2,73.35,61.54,70,63.18Zm-4.89.41L65,61.45c1.11-.08,2.21-.19,3.28-.31l-.89,2.59Zm-8.25.77.06-2.59c1.94,0,3.87-.07,5.76-.17l.85,2.6Zm-8.45.24,0-3c2.07.09,4.18.14,6.29.15l0,2.67Zm-8.6-.24-.44-3.29c2,.16,4.1.3,6.27.42l0,3Zm-4.83.32-.62-4.05,2.77.25,1.07,3.72Zm-11.21-.75a4.8,4.8,0,0,0-.46-.66c-1.4-1.77-3.5-1-4.87-2.49-.52-.57-.66-1.33-.95-2.85a15.14,15.14,0,0,1,0-5.46c.56-3.08,1.53-3.7,2.14-5.93a13.08,13.08,0,0,0-.71-8.19h1.9l2.33-2.42,5.08,8.32V60c1.16.14,2.51.29,4,.44h0l1.54,4Z"/></g></g></svg>