<svg xmlns="http://www.w3.org/2000/svg" viewBox="0 0 1200 3887.73"><defs><style>.cls-1{fill:#0f1028;}.cls-2{fill:#10102a;}</style></defs><title>Asset 32ThumbnailsJ&amp;amp;H</title><g id="Layer_2" data-name="Layer 2"><g id="moose"><polygon class="cls-1" points="1130.5 126.63 1086.52 109.52 1037.5 115.23 934.41 86.72 911.35 86.72 884.67 76.45 857.28 57.25 800.33 38.82 758.52 41.1 697.24 44.52 665.52 49.08 612.9 47.94 597.04 31.98 558.11 14.87 523.5 8.03 498.06 14.8 465.51 20.16 424.15 29.82 397.02 39.47 315.64 40.54 251.22 29.82 215.28 28.74 177.09 44.84 151.97 57.25 120.58 57.25 84.48 57.25 75.07 32.42 31.12 32.42 0 12.06 0 1414.02 0 1449.34 0 3887.73 1200 3887.73 1200 1449.34 1200 172.88 1130.5 126.63"/><path class="cls-2" d="M882.11,31.62c.27,0,.55-.06.83-.07a.49.49,0,0,1,.35.09,1.3,1.3,0,0,0,1,.57c.44,0,.89.06,1.44.1l.42.58a.87.87,0,0,0,1.17.27c.43-.28.85-.57,1.25-.88a1.45,1.45,0,0,1,2.09.21,4.77,4.77,0,0,1,.94,2.07.73.73,0,0,0,.09.23c.07.16.15.31.21.47.22.51.3,1.1.84,1.41s1.36.78,2,1.18c.1.06.25.17.24.25a9.94,9.94,0,0,1-.16,1.73,2.35,2.35,0,0,0,0,1.55,1,1,0,0,1,.13.46,1.3,1.3,0,0,0,.53,1.21,2.17,2.17,0,0,0,1.37.51c.14,0,.31-.24.48-.37s.09,0,.12-.07a6.67,6.67,0,0,0,.6-.59,3.3,3.3,0,0,0,.52-1.61c.07-.36.06-.73.1-1.09s.11-1,.17-1.52H899c0,.12,0,.25.06.36s.1.48.24.56a.38.38,0,0,1,.21.49,1.07,1.07,0,0,0,.57,1.16.7.7,0,0,1,.25.39,2.46,2.46,0,0,0,.22.61l-.76.43a1.45,1.45,0,0,0,.47.41.61.61,0,0,1,.23.22c.35.69.47.77,1.31.71,0,.8.09,1.6.14,2.4a1.53,1.53,0,0,0,0,.53,3.52,3.52,0,0,0,1.13,1.62,3,3,0,0,1,.67.82c.22.31.4.65.6,1s.37.41.54.63.13.24.2.36a.82.82,0,0,1,0,.39v.07l.19-.15a2.23,2.23,0,0,0,.38.37,3.19,3.19,0,0,1,.63.85c.2.32.37.66.56,1s.82.76.71,1.41a4.16,4.16,0,0,0,0,.61,1,1,0,0,0,.36.75c.2.21.37.45.55.68.4.51.8,1,1.22,1.53.17.21.5.38.52.6a5.67,5.67,0,0,1,0,1.84,10.34,10.34,0,0,0,0,3.92,31.69,31.69,0,0,0,.56,3.49,8.13,8.13,0,0,1,.07,3.4,13.18,13.18,0,0,1-.44,1.48,14.3,14.3,0,0,0-.54,1.88c-.17,1,.13,2.12-.12,3.17,0,.2.08.45.07.67a11.11,11.11,0,0,1-.1,1.16c0,.22-.12.44-.16.66a10.52,10.52,0,0,1-.9,3.15,1.18,1.18,0,0,0-.14.58,4,4,0,0,1-.49,1.63,10,10,0,0,0-.69,1.49,4.14,4.14,0,0,1-1.83,2.29c-.39.26-.93.29-1.34.54a12.58,12.58,0,0,0-2.34,1.26c-.35.33-.53.64.1,1a2.43,2.43,0,0,0,.55.09,2.94,2.94,0,0,1,.85.29,2,2,0,0,0,1.74.18,1.73,1.73,0,0,1,.62-.2,2.28,2.28,0,0,0,1.56-.84,2,2,0,0,1,.53-.52,1.14,1.14,0,0,1,.72-.12c.21,0,.37.27.56.42a.61.61,0,0,0,1-.43,11.8,11.8,0,0,0,.09-1.78,8.4,8.4,0,0,1,.33-2.29,3.78,3.78,0,0,0,.32-1.88.85.85,0,0,1,.07-.38c0-.22.14-.43.17-.65a9.58,9.58,0,0,1,.26-1.87,12.73,12.73,0,0,0,.7-3.2,3,3,0,0,1,.91-2,3.27,3.27,0,0,0,.94-1.27,8.76,8.76,0,0,0,.94-2.76,12.87,12.87,0,0,1,.17-1.39,2.27,2.27,0,0,1,.27-.87,6.06,6.06,0,0,0,.88-2.47c.12-.86.26-1.72.42-2.57s.35-1.43.47-2.15.16-1.4.25-2.1a3.29,3.29,0,0,1,.16-.77.46.46,0,0,1,.33-.23c.31,0,.62,0,.93,0s.22.06.28.24c.23.77.48,1.54.78,2.29s.86,1.72,1.17,2.62a13.94,13.94,0,0,1,.57,2.56c.18,1.29.29,2.59.4,3.89.07.85.08,1.71.15,2.56a3.42,3.42,0,0,0,.24,1.24,16.86,16.86,0,0,0,1.34,2.43,8,8,0,0,1,.87,2.75c.11.51.13,1,.2,1.55.12,1,.26,1.9.36,2.86.08.73.15,1.47.19,2.2a3.79,3.79,0,0,1-.18,2.4,4.17,4.17,0,0,1-.75,1.11c-.62.51-1.33.91-2,1.37a2.54,2.54,0,0,0-1,1.15c0,.1,0,.3,0,.33a1.73,1.73,0,0,0,1.29.34c.43.31.82.69,1.41.35a.22.22,0,0,1,.14,0,5.82,5.82,0,0,0,1.88-.37c.48-.14.59-.49.73-.88a3.57,3.57,0,0,1,.5-1c.49-.66.55-.64,1.25-.21a.42.42,0,0,0,.38,0c.25-.19.42-1,.22-1.23a2.14,2.14,0,0,1-.45-1.27c0-.09-.06-.18-.08-.28a11.45,11.45,0,0,1-.38-1.39c-.15-1-.2-1.94-.37-2.89a17,17,0,0,0-.52-2c-.1-.33-.28-.63-.35-1a6.17,6.17,0,0,1-.3-2.66,3.08,3.08,0,0,0,0-.74c0-.31-.08-.62-.09-.92,0-1.08-.07-2.16-.11-3.24a2.46,2.46,0,0,1,0-.28c0-.28.05-.56,0-.84,0-.57,0-1.13-.06-1.7l-.12-2.55a2.42,2.42,0,0,1,0-.25c.19-1.31.37-2.62.59-3.93.09-.57.25-1.13.39-1.71h.14c.57.11,1.14.25,1.71.33a30.18,30.18,0,0,0,3.27.33,12.69,12.69,0,0,0,4.09-.62c1.08-.34,2.14-.75,3.21-1.12.35-.12.42-.06.37.3s-.12.7-.16,1.06a31.37,31.37,0,0,0,.06,7.5,5.9,5.9,0,0,1-.11,1.67,7.89,7.89,0,0,0-.15,3.71,1.26,1.26,0,0,1-.07.69c-.17.51-.41,1-.56,1.5-.29,1-.54,2-.8,2.92-.1.36-.19.72-.29,1.07-.16.52-.31,1-.51,1.55-.39,1-1.28,1.7-1.33,2.84,0,0,0,.06-.05.09a13,13,0,0,1-.91,1.29,2.23,2.23,0,0,0-.61,1.06.51.51,0,0,1-.2.24c-.72.57-1.42,1.17-2.18,1.69a3.38,3.38,0,0,1-1.36.66,6,6,0,0,0-.91.29,7.83,7.83,0,0,0-.85.32,2.15,2.15,0,0,0-.63.39.37.37,0,0,0,.05.63,5.77,5.77,0,0,0,.9.44.86.86,0,0,1,.59.51,1.22,1.22,0,0,0,1.27.39,7.67,7.67,0,0,1,2.39-.93,1.5,1.5,0,0,0,.84-.54c.26-.31.56-.59.88-.92,0,.57.18.75.54.71a1,1,0,0,0,.88-.81c.16-.61.32-1.22.52-1.81A19,19,0,0,1,938,89.5a12.93,12.93,0,0,1,1-2,4.91,4.91,0,0,0,.7-1.53c.18-.61.31-1.23.53-1.81.42-1.09.84-2.18,1.35-3.22a19.21,19.21,0,0,1,2-3.71,23.16,23.16,0,0,0,1.36-2,1.7,1.7,0,0,0,.29-.86,12.93,12.93,0,0,1,.25-3.16,26.69,26.69,0,0,0,.4-3c0-.06,0-.12,0-.18a20.66,20.66,0,0,1,.08-2.08c.08-.62.34-1.22.43-1.85A5.63,5.63,0,0,1,948.25,61c.61.41,1.23.8,1.82,1.22a1.76,1.76,0,0,1,.58.57c.42.77.79,1.57,1.16,2.37.2.44.36.9.52,1.36.07.22,0,.5.16.68.29.45.65.85,1,1.28s.77,1.08,1.12,1.64c.47.74.93,1.5,1.36,2.26a9.23,9.23,0,0,1,1,1.84,6.93,6.93,0,0,0,1,2.73.65.65,0,0,1,.11.22,11.38,11.38,0,0,1,.47,1.08,13.14,13.14,0,0,1,.62,2.18c.16,1,.15,2,.26,3a7.25,7.25,0,0,1-.12,1.92,7.43,7.43,0,0,0-.19,2,9.19,9.19,0,0,1-.28,3.27,21.66,21.66,0,0,1-1.06,3.22,2.73,2.73,0,0,1-1,1.18c-.69.46-1.43.84-2.08,1.37-.41.34-.42.69.07.89a10.91,10.91,0,0,0,1.32.37,1,1,0,0,0,1.06.84.54.54,0,0,1,.21,0,.74.74,0,0,0,.76-.15c.48-.35,1-.64,1.49-1a2.94,2.94,0,0,0,.79-.74,4,4,0,0,0,.84-1.72s0-.07.07-.11a1,1,0,0,0,1.31-.24.29.29,0,0,0,.08-.25,1.9,1.9,0,0,0-.21-.56,2.29,2.29,0,0,1-.41-1.55,5.53,5.53,0,0,0-.1-1.28,7.37,7.37,0,0,1,0-2.73,9.14,9.14,0,0,0,.26-2.27,15.89,15.89,0,0,0-.3-1.65c-.09-.84,0-1.7-.19-2.53a8,8,0,0,1-.05-2.63c.08-.61.17-1.21.19-1.82s-.06-1-.09-1.49c0-.29,0-.58-.07-.87a12.79,12.79,0,0,0-.08-1.52,3,3,0,0,1,0-1.58,1.26,1.26,0,0,0-.17-1.2,6,6,0,0,1-1-1.71c-.17-.54-.47-1-.61-1.59a6.39,6.39,0,0,0-1.17-2.5,1.42,1.42,0,0,1-.17-.35,11.66,11.66,0,0,1-.52-2.55,9.94,9.94,0,0,1,.27-4.54,19.25,19.25,0,0,1,1.33-2.93,6.86,6.86,0,0,0,.69-3.61,9.84,9.84,0,0,0-.73-2.5,5.55,5.55,0,0,1-.42-2.48c.7.19,1.17-.2,1.06-.91a3.68,3.68,0,0,0-.33-.89,3.14,3.14,0,0,0-.38-.67,3.34,3.34,0,0,0-.56-.62,8.64,8.64,0,0,0-.94-.64l-2.62-1.61a14.23,14.23,0,0,0-3.94-1.76c-1.28-.33-2.57-.64-3.87-.87a34.28,34.28,0,0,0-6.32-.37,10.21,10.21,0,0,1-2.07,0c-1.59-.32-3.17-.73-4.74-1.13a10.48,10.48,0,0,1-3.5-1.51,6.06,6.06,0,0,1-.76-.76c-.14-.15-.27-.34-.44-.4-.33-.12-.44-.59-.88-.51,0,0,0-.06-.05-.11s.19,0,.25,0a2.51,2.51,0,0,0,.37-.27,1.66,1.66,0,0,0-.37-.14l-.34,0,1.49-1.19a9.46,9.46,0,0,1-2.64-1.12,6.81,6.81,0,0,1-.79-.74c-.14-.13-.28-.32-.45-.37-.34-.11-.47-.57-.9-.48,0,0,0-.05-.06-.11s.19,0,.25,0a3.26,3.26,0,0,0,.36-.29,1.68,1.68,0,0,0-.38-.12h0l.18-.1-.55,0V28l.45-.27c-.43-.33-1,0-1.43-.36l.44-.21-.58-.24c.06-.3-.06-.38-.35-.32a3.09,3.09,0,0,1-.6,0c.2-.44.12-.5-.28-.55a12.35,12.35,0,0,1-1.43-.34l0-.13.27-.09c-.08-.06-.25-.13-.25-.17.11-.51-.24-.3-.42-.27s-.37.17-.51-.11c0-.05-.22-.05-.31,0-.25.09-.5.27-.51-.21a.16.16,0,0,0-.11-.12,4.61,4.61,0,0,0-.83-.3,6.66,6.66,0,0,0-1-.08c0-.28-.22-.26-.45-.14s-.15.12-.23.16a.84.84,0,0,1-1,0l-.9.25c.05-.32-.08-.45-.3-.42s-.49.16-.73.22a.92.92,0,0,1-.5.08c-.4-.16-.78-.38-1.16-.57.44-.79.18-1.44-.65-1.51a1.49,1.49,0,0,1-1.28-.55,8.71,8.71,0,0,0,1.28-.59,19.63,19.63,0,0,0,2.64-2,5.83,5.83,0,0,1,3-1.16c.85-.2,1.73-.28,2.55-.53a17.45,17.45,0,0,0,4-1.92l.44-.22c.73-.39,1.47-.75,2.17-1.17s1.3-.85,1.94-1.28a5.08,5.08,0,0,0,1.29-1,1,1,0,0,1,1.18-.45h.1a.51.51,0,0,0,.6-.43.48.48,0,0,0-.37-.57l-.42-.16c0-.1.07-.2.12-.24a7.82,7.82,0,0,1,.94-.69.73.73,0,0,0,.42-.91c-.09-.25-.32-.3-.74-.15-.13,0-.25.12-.39.17a.34.34,0,0,1-.15,0,8.44,8.44,0,0,0,.18-1.18c0-.38-.3-.51-.62-.29s-.37.26-.59.42a8.47,8.47,0,0,0-.36-5.32c0-.12-.21-.18-.33-.27-.07.11-.2.21-.21.32-.1.6-.14,1.21-.25,1.81A7.06,7.06,0,0,1,927.74,7a15.29,15.29,0,0,1-1.68,2.08c-.37.37-.82.86-1.52.63-.31-.1-.41-.18-.32-.51.58-2.07,1.13-4.15,1.68-6.23A4.8,4.8,0,0,0,926,.54c0-.12-.12-.3-.19-.3a.56.56,0,0,0-.41.14,1,1,0,0,0-.24.43c-.53,1.48-1,3-1.58,4.46a11.85,11.85,0,0,1-2,3.59c-.55.69-1.15,1.34-1.72,2a.69.69,0,0,1-1.21-.23,8.53,8.53,0,0,1-.38-1.31c-.18-1-.37-2-.46-3a10.05,10.05,0,0,1,.54-4.38,2.92,2.92,0,0,1,.84-1.42,1.51,1.51,0,0,0,.22-.32c-.14-.06-.3-.21-.42-.19a2.63,2.63,0,0,0-2.11,1.58,13.34,13.34,0,0,0-.74,2.72,22.37,22.37,0,0,0-.16,5,5.32,5.32,0,0,1-.2,2.47,15.77,15.77,0,0,1-1.57,2.81,1.2,1.2,0,0,1-.26.24c-.22.16-.38.1-.44-.16a3.85,3.85,0,0,1-.11-.82,9.75,9.75,0,0,1,1-4.72c0-.1.13-.2.12-.29a.85.85,0,0,0-.16-.5.45.45,0,0,0-.47.05,7.22,7.22,0,0,0-2,2.49,6.1,6.1,0,0,0-.47,2,7.68,7.68,0,0,1-.19,2.74,5.05,5.05,0,0,1-1.8,2.28c.11-.61.3-1.19.4-1.78s.13-1.35.21-2a2.58,2.58,0,0,0-.32-1.54.68.68,0,0,0-.91-.33l-.59.23a1.07,1.07,0,0,1,.74-1.32,4.14,4.14,0,0,0,.93-.55.51.51,0,0,0,.09-.48.65.65,0,0,0-.41-.31,4.08,4.08,0,0,0-.74-.06c.13-.87.28-1.71.38-2.56,0-.16-.14-.34-.22-.52a1.76,1.76,0,0,0-.43.31c-.37.49-.7,1-1,1.5l-.65,1a9.46,9.46,0,0,0,.06-1.17.6.6,0,0,0-.26-.44c-.1-.06-.33,0-.46.13-.3.22-.56.51-.86.74s-.45.11-.49-.14-.09-.71-.11-1.07-.05-.52-.35-.58-.38.21-.52.41a5.82,5.82,0,0,1-.73.91c-.08.09-.33.06-.48,0s-.14-.19-.16-.3-.06-.45-.1-.67c-.07-.39-.29-.52-.6-.29a1.76,1.76,0,0,0-.59.68A2.85,2.85,0,0,1,899.82,9a.38.38,0,0,1-.6-.32,2.16,2.16,0,0,1,0-.36c.07-1.12.14-2.24.2-3.36,0-.08,0-.18,0-.24s-.15-.4-.29-.46a.5.5,0,0,0-.45.19,6.59,6.59,0,0,0-.62,1.21c-.31.83-.57,1.67-.85,2.54l-.06-.44A10.27,10.27,0,0,0,897,6.7a.55.55,0,0,0-.37-.31c-.13,0-.28.17-.4.29a.42.42,0,0,0-.08.23,17.29,17.29,0,0,0-.25,1.88c0,.6.09,1.21.13,1.82a.39.39,0,0,1-.08.28.27.27,0,0,1-.26,0c-.45-.4-1-.74-1.19-1.35-.3-.93-.54-1.88-.78-2.83-.08-.28-.25-.43-.5-.38a.56.56,0,0,0-.35.38,18.06,18.06,0,0,0-.12,2c0,.82.07,1.64.09,2.47a.76.76,0,0,1-.58.78.79.79,0,0,1-.9-.67,3.42,3.42,0,0,1-.06-.78c0-.51.1-1,.08-1.54a2.5,2.5,0,0,0-.26-1,.36.36,0,0,0-.64,0c-.18.38-.32.78-.48,1.18-.06.14-.1.28-.18.5a2.28,2.28,0,0,1-.24-.33c-.08-.19-.14-.39-.21-.58-.26-.71-.57-1.41-.78-2.13-.1-.36-.12-.65-.57-.69-.2,0-.33,0-.35.19a7.5,7.5,0,0,0-.1,1.88,10.51,10.51,0,0,0,1,3.42c.23.41.48.82.72,1.24s.1,1.14-.15,1.29-.64-.1-.94-.25a1.19,1.19,0,0,1-.31-.23,1.38,1.38,0,0,1-.37-.48A11.31,11.31,0,0,1,887,9.21a.58.58,0,0,0-.36-.7c-.26-.09-.54.08-.67.45a7.44,7.44,0,0,0-.38,1.3,6.31,6.31,0,0,0,.32,4.15c.33.61.67,1.21,1,1.81l-.4-.17a2.89,2.89,0,0,1-1.72-1.9,9.21,9.21,0,0,1,0-4.08c.1-.7.25-1.39.38-2.08a.36.36,0,0,0-.25-.45c-.22-.09-.33,0-.42.22s-.19.3-.27.46a11.59,11.59,0,0,0-1.28,5.38,4.63,4.63,0,0,0,.81,2.87c.45.62.95,1.19,1.45,1.77a3,3,0,0,0,2.43,1,7,7,0,0,1,1.74.33c.86.26,1.7.62,2.56.89.29.1.64,0,1,.08,1,.25,2,.52,3.08.79,0,0,0,.06-.07.08a2.72,2.72,0,0,1-1.7.69,2.53,2.53,0,0,0-.71.1,7.82,7.82,0,0,1-1.16.2c-.91,0-1.81,0-2.72,0A4.33,4.33,0,0,0,887,23a15.41,15.41,0,0,1-1.48.7,7.11,7.11,0,0,0-1.63.95,6.19,6.19,0,0,0-1.9,3.42,7.36,7.36,0,0,1-.67,2.05C880.88,30.87,881.25,31.69,882.11,31.62Zm23.1-17.86a12.77,12.77,0,0,1-.76,1.41,4.08,4.08,0,0,0-.74,1.71l-.11,0-.67-2.53,2.18-.7Zm-8.62,3.67c.22-.31.47-.61.7-.92l.15,0a4.1,4.1,0,0,0,1.22,2.68,1.07,1.07,0,0,1-1.52-.62,1,1,0,0,0-.39-.44C896.46,17.93,896.39,17.73,896.59,17.43Z"/></g></g></svg>